<svg width="35" height="31" viewBox="0 0 35 31" fill="#7CA982" xmlns="http://www.w3.org/2000/svg">
<path d="M22.6211 5.37895C21.8842 5.37895 21.2518 5.11491 20.7237 4.58684C20.1956 4.05877 19.9316 3.42632 19.9316 2.68947C19.9316 1.95263 20.1956 1.32018 20.7237 0.792105C21.2518 0.264035 21.8842 0 22.6211 0C23.3579 0 23.9904 0.264035 24.5184 0.792105C25.0465 1.32018 25.3105 1.95263 25.3105 2.68947C25.3105 3.42632 25.0465 4.05877 24.5184 4.58684C23.9904 5.11491 23.3579 5.37895 22.6211 5.37895ZM15.3632 12.9684L18.6421 16.4684V25.5684H16.4316V18.2L11.4211 13.8158C11.2 13.6193 11.0158 13.3553 10.8684 13.0237C10.7211 12.6921 10.6474 12.3544 10.6474 12.0105C10.6474 11.6667 10.7272 11.3351 10.8868 11.0158C11.0465 10.6965 11.2246 10.4386 11.4211 10.2421L15.8053 5.85789C16.0018 5.6614 16.2781 5.48333 16.6342 5.32368C16.9904 5.16404 17.3649 5.08421 17.7579 5.08421C18.1509 5.08421 18.5254 5.16404 18.8816 5.32368C19.2377 5.48333 19.514 5.6614 19.7105 5.85789L22.5842 8.73158C23.2474 9.39474 24.0395 9.96579 24.9605 10.4447C25.8816 10.9237 26.9193 11.1632 28.0737 11.1632V13.3737C26.6 13.3737 25.2737 13.0974 24.0947 12.5447C22.9158 11.9921 21.8596 11.2491 20.9263 10.3158L19.4526 8.8421L15.3632 12.9684ZM7.18421 15.8421C9.22281 15.8421 10.9298 16.5298 12.3053 17.9053C13.6807 19.2807 14.3684 20.9877 14.3684 23.0263C14.3684 25.0649 13.6807 26.7719 12.3053 28.1474C10.9298 29.5228 9.22281 30.2105 7.18421 30.2105C5.14561 30.2105 3.4386 29.5228 2.06316 28.1474C0.687719 26.7719 0 25.0649 0 23.0263C0 20.9877 0.687719 19.2807 2.06316 17.9053C3.4386 16.5298 5.14561 15.8421 7.18421 15.8421ZM7.18421 28.4053C8.70702 28.4053 9.98421 27.8895 11.0158 26.8579C12.0474 25.8263 12.5632 24.5491 12.5632 23.0263C12.5632 21.5035 12.0474 20.2263 11.0158 19.1947C9.98421 18.1632 8.70702 17.6474 7.18421 17.6474C5.6614 17.6474 4.38421 18.1632 3.35263 19.1947C2.32105 20.2263 1.80526 21.5035 1.80526 23.0263C1.80526 24.5491 2.32105 25.8263 3.35263 26.8579C4.38421 27.8895 5.6614 28.4053 7.18421 28.4053ZM27.8158 15.8421C29.8544 15.8421 31.5614 16.5298 32.9368 17.9053C34.3123 19.2807 35 20.9877 35 23.0263C35 25.0649 34.3123 26.7719 32.9368 28.1474C31.5614 29.5228 29.8544 30.2105 27.8158 30.2105C25.7772 30.2105 24.0702 29.5228 22.6947 28.1474C21.3193 26.7719 20.6316 25.0649 20.6316 23.0263C20.6316 20.9877 21.3193 19.2807 22.6947 17.9053C24.0702 16.5298 25.7772 15.8421 27.8158 15.8421ZM27.8158 28.4053C29.3386 28.4053 30.6158 27.8895 31.6474 26.8579C32.6789 25.8263 33.1947 24.5491 33.1947 23.0263C33.1947 21.5035 32.6789 20.2263 31.6474 19.1947C30.6158 18.1632 29.3386 17.6474 27.8158 17.6474C26.293 17.6474 25.0158 18.1632 23.9842 19.1947C22.9526 20.2263 22.4368 21.5035 22.4368 23.0263C22.4368 24.5491 22.9526 25.8263 23.9842 26.8579C25.0158 27.8895 26.293 28.4053 27.8158 28.4053Z" fill="#41493B"/>
</svg>
