<svg width="29" height="25" viewBox="0 0 29 25" fill="#7CA982" xmlns="http://www.w3.org/2000/svg">
<path d="M3.125 21.7188V23.8281C3.125 24.1667 3.01432 24.4466 2.79297 24.668C2.57161 24.8893 2.29167 25 1.95312 25H1.17188C0.833333 25 0.553386 24.8893 0.332031 24.668C0.110677 24.4466 0 24.1667 0 23.8281V11.1719L3.32031 1.17188C3.45052 0.807292 3.66536 0.520833 3.96484 0.3125C4.26432 0.104166 4.60937 0 5 0H23.125C23.5156 0 23.8607 0.104166 24.1602 0.3125C24.4596 0.520833 24.6745 0.807292 24.8047 1.17188L28.125 11.1719V23.8281C28.125 24.1667 28.0143 24.4466 27.793 24.668C27.5716 24.8893 27.2917 25 26.9531 25H26.1328C25.7943 25 25.5208 24.8893 25.3125 24.668C25.1042 24.4466 25 24.1667 25 23.8281V21.7188H3.125ZM3.24219 8.82812H24.8828L22.7344 2.34375H5.39062L3.24219 8.82812ZM2.34375 11.1719V19.375V11.1719ZM6.48438 17.4219C7.08333 17.4219 7.58464 17.2135 7.98828 16.7969C8.39193 16.3802 8.59375 15.8854 8.59375 15.3125C8.59375 14.7135 8.39193 14.1992 7.98828 13.7695C7.58464 13.3398 7.08333 13.125 6.48438 13.125C5.88542 13.125 5.37109 13.3398 4.94141 13.7695C4.51172 14.1992 4.29688 14.7135 4.29688 15.3125C4.29688 15.9115 4.51172 16.4128 4.94141 16.8164C5.37109 17.2201 5.88542 17.4219 6.48438 17.4219ZM21.6797 17.4219C22.2786 17.4219 22.793 17.2135 23.2227 16.7969C23.6523 16.3802 23.8672 15.8854 23.8672 15.3125C23.8672 14.7135 23.6523 14.1992 23.2227 13.7695C22.793 13.3398 22.2786 13.125 21.6797 13.125C21.0807 13.125 20.5794 13.3398 20.1758 13.7695C19.7721 14.1992 19.5703 14.7135 19.5703 15.3125C19.5703 15.9115 19.7786 16.4128 20.1953 16.8164C20.612 17.2201 21.1068 17.4219 21.6797 17.4219ZM2.34375 19.375H25.7812V11.1719H2.34375V19.375Z" fill="#41493B"/>
</svg>
