<svg width="30" height="27" viewBox="0 0 30 27" fill="none" xmlns="http://www.w3.org/2000/svg">
<path d="M27.4675 4.94366H2.53247C1.12987 4.94366 0 3.84085 0 2.47183C0 1.10282 1.12987 0 2.53247 0H27.4675C28.8701 0 30 1.10282 30 2.47183C30 3.84085 28.8701 4.94366 27.4675 4.94366ZM30 13.5C30 12.131 28.8701 11.0282 27.4675 11.0282H2.53247C1.12987 11.0282 0 12.131 0 13.5C0 14.869 1.12987 15.9718 2.53247 15.9718H27.4675C28.8701 15.9718 30 14.869 30 13.5ZM30 24.5282C30 23.1592 28.8701 22.0563 27.4675 22.0563H2.53247C1.12987 22.0563 0 23.1592 0 24.5282C0 25.8972 1.12987 27 2.53247 27H27.4675C28.8701 27 30 25.8972 30 24.5282Z" fill="white"/>
</svg>
