<svg width="27" height="32" viewBox="0 0 27 32" fill="#7CA982" xmlns="http://www.w3.org/2000/svg">
<path d="M3.74737 32C3.38246 32 3.05965 31.8947 2.77895 31.6842C2.49825 31.4737 2.35789 31.2 2.35789 30.8632V27.3263C1.54386 26.8772 0.947369 26.2316 0.568421 25.3895C0.189474 24.5474 0 23.6491 0 22.6947V5.97895C0 3.90175 1.07368 2.38596 3.22105 1.43158C5.36842 0.477193 8.8 0 13.5158 0C18.1754 0 21.5789 0.477193 23.7263 1.43158C25.8737 2.38596 26.9474 3.90175 26.9474 5.97895V22.6947C26.9474 23.6491 26.7579 24.5474 26.3789 25.3895C26 26.2316 25.4035 26.8772 24.5895 27.3263V30.8632C24.5895 31.2 24.4491 31.4737 24.1684 31.6842C23.8877 31.8947 23.5649 32 23.2 32H22.4C22.007 32 21.6702 31.8947 21.3895 31.6842C21.1088 31.4737 20.9684 31.2 20.9684 30.8632V28.5474H5.97895V30.8632C5.97895 31.2 5.8386 31.4737 5.5579 31.6842C5.27719 31.8947 4.94035 32 4.54737 32H3.74737ZM13.5158 4.88421H24.4211H2.52632H13.5158ZM20.9684 17.2211H2.52632H24.4211H20.9684ZM2.52632 14.6947H24.4211V7.41053H2.52632V14.6947ZM6.98947 23.9158C7.63509 23.9158 8.18246 23.6912 8.63158 23.2421C9.0807 22.793 9.30526 22.2456 9.30526 21.6C9.30526 20.9544 9.0807 20.407 8.63158 19.9579C8.18246 19.5088 7.63509 19.2842 6.98947 19.2842C6.34386 19.2842 5.79649 19.5088 5.34737 19.9579C4.89825 20.407 4.67368 20.9544 4.67368 21.6C4.67368 22.2456 4.89825 22.793 5.34737 23.2421C5.79649 23.6912 6.34386 23.9158 6.98947 23.9158ZM19.9579 23.9158C20.6035 23.9158 21.1509 23.6912 21.6 23.2421C22.0491 22.793 22.2737 22.2456 22.2737 21.6C22.2737 20.9544 22.0491 20.407 21.6 19.9579C21.1509 19.5088 20.6035 19.2842 19.9579 19.2842C19.3123 19.2842 18.7649 19.5088 18.3158 19.9579C17.8667 20.407 17.6421 20.9544 17.6421 21.6C17.6421 22.2456 17.8667 22.793 18.3158 23.2421C18.7649 23.6912 19.3123 23.9158 19.9579 23.9158ZM2.52632 4.88421H24.4211C23.7474 4.15439 22.4561 3.57895 20.5474 3.15789C18.6386 2.73684 16.2947 2.52632 13.5158 2.52632C10.2035 2.52632 7.66316 2.71579 5.89474 3.09474C4.12632 3.47368 3.00351 4.07018 2.52632 4.88421ZM5.97895 26.0211H20.9684C21.9509 26.0211 22.7719 25.6421 23.4316 24.8842C24.0912 24.1263 24.4211 23.2561 24.4211 22.2737V17.2211H2.52632V22.2737C2.52632 23.2561 2.85614 24.1263 3.51579 24.8842C4.17544 25.6421 4.99649 26.0211 5.97895 26.0211Z" fill="#41493B"/>
</svg>
