<svg width="33" height="36" viewBox="0 0 33 36" fill="#7CA982" xmlns="http://www.w3.org/2000/svg">
<path d="M4.54091 27.8182C3.28636 27.8182 2.21591 27.375 1.32955 26.4886C0.443182 25.6023 0 24.5318 0 23.2773C0 22.0227 0.443182 20.9523 1.32955 20.0659C2.21591 19.1795 3.28636 18.7364 4.54091 18.7364C5.57727 18.7364 6.51818 19.0227 7.36364 19.5955C8.20909 20.1682 8.74091 20.9455 8.95909 21.9273H18.7773C18.9955 19.9636 19.7727 18.2659 21.1091 16.8341C22.4455 15.4023 24.0955 14.5091 26.0591 14.1545L23.4818 2.45455H17.0182V0H22.95C23.6864 0 24.3477 0.218182 24.9341 0.654545C25.5205 1.09091 25.8955 1.66364 26.0591 2.37273L29.0864 16.1182H28.1864C26.2227 16.1182 24.5455 16.8205 23.1545 18.225C21.7636 19.6295 21.0682 21.3136 21.0682 23.2773V24.3818H8.95909C8.74091 25.4182 8.20909 26.25 7.36364 26.8773C6.51818 27.5045 5.57727 27.8182 4.54091 27.8182ZM4.54091 25.3636C5.11364 25.3636 5.60455 25.1591 6.01364 24.75C6.42273 24.3409 6.62727 23.85 6.62727 23.2773C6.62727 22.7045 6.42273 22.2136 6.01364 21.8045C5.60455 21.3955 5.11364 21.1909 4.54091 21.1909C3.96818 21.1909 3.47727 21.3955 3.06818 21.8045C2.65909 22.2136 2.45455 22.7045 2.45455 23.2773C2.45455 23.85 2.65909 24.3409 3.06818 24.75C3.47727 25.1591 3.96818 25.3636 4.54091 25.3636ZM28.1864 27.8182C26.9318 27.8182 25.8614 27.375 24.975 26.4886C24.0886 25.6023 23.6455 24.5318 23.6455 23.2773C23.6455 22.0227 24.0886 20.9523 24.975 20.0659C25.8614 19.1795 26.9318 18.7364 28.1864 18.7364C29.4409 18.7364 30.5114 19.1795 31.3977 20.0659C32.2841 20.9523 32.7273 22.0227 32.7273 23.2773C32.7273 24.5318 32.2841 25.6023 31.3977 26.4886C30.5114 27.375 29.4409 27.8182 28.1864 27.8182ZM28.1864 25.3636C28.7591 25.3636 29.25 25.1591 29.6591 24.75C30.0682 24.3409 30.2727 23.85 30.2727 23.2773C30.2727 22.7045 30.0682 22.2136 29.6591 21.8045C29.25 21.3955 28.7591 21.1909 28.1864 21.1909C27.6136 21.1909 27.1227 21.3955 26.7136 21.8045C26.3045 22.2136 26.1 22.7045 26.1 23.2773C26.1 23.85 26.3045 24.3409 26.7136 24.75C27.1227 25.1591 27.6136 25.3636 28.1864 25.3636ZM18.1227 36L8.75455 31.2136H14.8909V27.9818L24.2591 32.8091H18.1227V36Z" fill="#41493B"/>
</svg>
