<svg width="22" height="35" viewBox="0 0 22 35" fill="#7CA982" xmlns="http://www.w3.org/2000/svg">
<path d="M1.88427 35L6.63593 11.1512L2.49871 12.9012V18.314H0V11.2733L7.8648 7.97674C8.24712 7.81395 8.64991 7.71221 9.07319 7.67151C9.49647 7.63081 9.91292 7.65116 10.3225 7.73256C10.7868 7.81395 11.1896 7.96318 11.5309 8.18023C11.8723 8.39729 12.1522 8.6686 12.3707 8.99419L14.0911 11.6802C14.9377 12.9826 15.9959 14.0068 17.2657 14.7529C18.5355 15.499 19.8941 15.8721 21.3415 15.8721V18.314C19.4299 18.2597 17.7436 17.8459 16.2826 17.0727C14.8216 16.2994 13.504 15.1124 12.3297 13.5116L10.7731 19.6977L14.5417 23.0756V35H12.0839V25.2326L7.65999 21.2442L4.42395 35H1.88427ZM12.6164 5.94186C11.7972 5.94186 11.094 5.65019 10.5069 5.06686C9.91975 4.48353 9.62619 3.78488 9.62619 2.97093C9.62619 2.15698 9.91975 1.45833 10.5069 0.875C11.094 0.291667 11.7972 0 12.6164 0C13.4357 0 14.1389 0.291667 14.726 0.875C15.3131 1.45833 15.6067 2.15698 15.6067 2.97093C15.6067 3.78488 15.3131 4.48353 14.726 5.06686C14.1389 5.65019 13.4357 5.94186 12.6164 5.94186Z" fill="#41493B"/>
</svg>
